<svg xmlns="http://www.w3.org/2000/svg" width="1200" height="800" viewBox="0 0 1200 800" fill="none">
  <defs>
    <linearGradient id="bg" x1="0" y1="0" x2="1" y2="1">
      <stop offset="0" stop-color="#FFFFFF" />
      <stop offset="1" stop-color="#F3F0EA" />
    </linearGradient>
    <linearGradient id="strand" x1="0" y1="0" x2="1" y2="0">
      <stop offset="0" stop-color="#C6A15B" />
      <stop offset="1" stop-color="#8E6B2F" />
    </linearGradient>
  </defs>
  <rect width="1200" height="800" rx="60" fill="url(#bg)" />
  <path d="M140 520 C260 320, 460 320, 580 520 S900 720, 1060 520" stroke="url(#strand)" stroke-width="10" fill="none" opacity="0.5" />
  <path d="M140 320 C260 520, 460 520, 580 320 S900 120, 1060 320" stroke="url(#strand)" stroke-width="10" fill="none" opacity="0.5" />
  <path d="M200 420 C320 260, 520 260, 640 420 S920 580, 1000 420" stroke="#0F3B2E" stroke-width="6" fill="none" opacity="0.25" />
  <g opacity="0.6" fill="#C6A15B">
    <circle cx="220" cy="420" r="6" />
    <circle cx="320" cy="380" r="6" />
    <circle cx="420" cy="360" r="6" />
    <circle cx="520" cy="380" r="6" />
    <circle cx="620" cy="420" r="6" />
    <circle cx="720" cy="460" r="6" />
    <circle cx="820" cy="480" r="6" />
    <circle cx="920" cy="460" r="6" />
  </g>
</svg>
