<svg xmlns="http://www.w3.org/2000/svg" width="1200" height="800" viewBox="0 0 1200 800" fill="none">
  <defs>
    <linearGradient id="bg" x1="0" y1="0" x2="1" y2="1">
      <stop offset="0" stop-color="#F8F4EC" />
      <stop offset="1" stop-color="#EEE3D1" />
    </linearGradient>
    <linearGradient id="flake" x1="0" y1="0" x2="1" y2="1">
      <stop offset="0" stop-color="#F2D88F" />
      <stop offset="1" stop-color="#C6A15B" />
    </linearGradient>
  </defs>
  <rect width="1200" height="800" rx="60" fill="url(#bg)" />
  <g opacity="0.9">
    <rect x="180" y="140" width="220" height="140" rx="16" fill="url(#flake)" />
    <rect x="520" y="180" width="260" height="160" rx="18" fill="url(#flake)" />
    <rect x="860" y="140" width="160" height="120" rx="14" fill="url(#flake)" />
    <rect x="260" y="360" width="280" height="180" rx="18" fill="url(#flake)" />
    <rect x="620" y="380" width="320" height="200" rx="18" fill="url(#flake)" />
    <rect x="180" y="600" width="200" height="120" rx="14" fill="url(#flake)" />
    <rect x="520" y="620" width="220" height="120" rx="14" fill="url(#flake)" />
    <rect x="820" y="610" width="200" height="120" rx="14" fill="url(#flake)" />
  </g>
  <g opacity="0.35" fill="#0F3B2E">
    <circle cx="300" cy="120" r="4" />
    <circle cx="760" cy="130" r="4" />
    <circle cx="960" cy="320" r="4" />
    <circle cx="420" cy="580" r="4" />
    <circle cx="760" cy="700" r="4" />
  </g>
</svg>
